<?xml version="1.0" encoding="UTF-8"?>
<svg width="320" height="320" viewBox="0 0 320 320" xmlns="http://www.w3.org/2000/svg">
    <!-- ========== STYLE ========== -->
    <defs>
        <style><![CDATA[
      .line { stroke:#222; stroke-width:6; stroke-linecap:round; fill:none; }
      .thin { stroke-width:4; }
      .bar  { stroke:#1e88e5; stroke-width:8; stroke-linecap:round; }
      .plate { fill:#1e88e5; }
      .ground { stroke:#999; stroke-width:2; stroke-linecap:round; }
    ]]></style>
    </defs>

    <!-- ========== BACKGROUND GUIDES ========== -->
    <line x1="20" y1="280" x2="300" y2="280" class="ground" />

    <!-- ========== STICK FIGURE ========== -->
    <!-- Head -->
    <circle cx="160" cy="85" r="18" class="line" />

    <!-- Torso -->
    <line x1="160" y1="103" x2="160" y2="175" class="line" />

    <!-- Hips to feet (legs) -->
    <line x1="160" y1="175" x2="135" y2="230" class="line" />
    <line x1="160" y1="175" x2="185" y2="230" class="line" />
    <!-- Feet -->
    <line x1="125" y1="230" x2="145" y2="230" class="thin" />
    <line x1="175" y1="230" x2="195" y2="230" class="thin" />

    <!-- Shoulders (for reference point) -->
    <circle cx="160" cy="128" r="2" fill="#444"/>

    <!-- Arms: upper arms -->
    <line x1="160" y1="128" x2="125" y2="145" class="line" />
    <line x1="160" y1="128" x2="195" y2="145" class="line" />

    <!-- Bar and plates (top position) -->
    <line x1="100" y1="70" x2="220" y2="70" class="bar" />
    <rect x="90"  y="58" width="10" height="24" rx="2" ry="2" class="plate"/>
    <rect x="220" y="58" width="10" height="24" rx="2" ry="2" class="plate"/>

    <!-- Forearms connecting to the bar -->
    <line x1="125" y1="145" x2="120" y2="70" class="line" />
    <line x1="195" y1="145" x2="200" y2="70" class="line" />

    <!-- Small hand dots -->
    <circle cx="120" cy="70" r="3.5" fill="#1e88e5" />
    <circle cx="200" cy="70" r="3.5" fill="#1e88e5" />

    <!-- Optional label -->
    <text x="160" y="305" text-anchor="middle" font-family="Segoe UI, Arial, sans-serif" font-size="12" fill="#666">
        Overhead press
    </text>
</svg>
